<svg viewBox="0 150 1026 850" fill="none" xmlns="http://www.w3.org/2000/svg">
    <path d="M0 588.5C21.5 588.5 28.5 507.5 36 507.5C43.5 507.5 50.5 669.5 58 669.5C65.5 669.5 72.5 467.5 80 467.5C87.5 467.5 94.5 710.5 102 710.5C109.5 710.5 116.5 398.5 124 398.5C131.5 398.5 138.5 829.5 146 829.5C153.5 829.5 160.5 241.5 168 241.5C175.5 241.5 182.5 953.5 190 953.5C197.5 953.5 204.5 184.5 212 184.5C219.5 184.5 226.5 976.5 234 976.5C241.5 976.5 248.5 151.5 256 151.5C263.5 151.5 270.5 999.5 278 999.5C285.5 999.5 292.5 168.5 300 168.5C307.5 168.5 314.5 982.5 322 982.5C329.5 982.5 336.5 224.5 344 224.5C351.5 224.5 358.5 935.5 366 935.5C373.5 935.5 380.5 309.5 388 309.5C395.5 309.5 402.5 864.5 410 864.5C417.5 864.5 424.5 417.5 432 417.5C439.5 417.5 446.5 781.5 454 781.5C461.5 781.5 468.5 532.5 476 532.5C483.5 532.5 490.5 693.5 498 693.5C505.5 693.5 512.5 505.5 520 505.5C527.5 505.5 534.5 693.5 542 693.5C549.5 693.5 556.5 532.5 564 532.5C571.5 532.5 578.5 781.5 586 781.5C593.5 781.5 600.5 417.5 608 417.5C615.5 417.5 622.5 864.5 630 864.5C637.5 864.5 644.5 309.5 652 309.5C659.5 309.5 666.5 935.5 674 935.5C681.5 935.5 688.5 224.5 696 224.5C703.5 224.5 710.5 982.5 718 982.5C725.5 982.5 732.5 168.5 740 168.5C747.5 168.5 754.5 999.5 762 999.5C769.5 999.5 776.5 151.5 784 151.5C791.5 151.5 798.5 976.5 806 976.5C813.5 976.5 820.5 184.5 828 184.5C835.5 184.5 842.5 953.5 850 953.5C857.5 953.5 864.5 241.5 872 241.5C879.5 241.5 886.5 829.5 894 829.5C901.5 829.5 908.5 398.5 916 398.5C923.5 398.5 930.5 710.5 938 710.5C945.5 710.5 952.5 467.5 960 467.5C967.5 467.5 974.5 669.5 982 669.5C989.5 669.5 996.5 507.5 1004 507.5C1011.5 507.5 1018.5 588.5 1026 588.5" stroke="white" stroke-width="6"/>
</svg>